<svg xmlns="http://www.w3.org/2000/svg" viewBox="0 0 100 100"><rect width="100" height="100" fill="#3faf9fa" rx="20"/><path fill="#413956" d="M33.2 76.14q-4.66 0-8.38-1.68-3.73-1.67-5.89-4.97-2.15-3.29-2.15-8.11 0-4.16 1.53-6.88 1.54-2.71 4.19-4.34 2.65-1.63 5.99-2.48 3.34-.85 6.92-1.23 4.31-.45 7-.82 2.68-.36 3.91-1.15 1.24-.78 1.24-2.44v-.19q0-3.61-2.15-5.6-2.14-1.98-6.16-1.98-4.26 0-6.73 1.86-2.48 1.85-3.34 4.38l-10.8-1.54q1.27-4.47 4.21-7.49 2.94-3.02 7.2-4.54 4.25-1.52 9.39-1.52 3.55 0 7.06.83 3.52.83 6.43 2.73 2.91 1.91 4.68 5.17 1.77 3.26 1.77 8.15v32.85H48v-6.74h-.38q-1.06 2.04-2.96 3.82-1.9 1.77-4.76 2.84-2.86 1.07-6.7 1.07Zm3.01-8.5q3.48 0 6.04-1.39t3.95-3.69q1.39-2.3 1.39-5.02v-5.78q-.55.44-1.84.83-1.3.38-2.89.67-1.6.29-3.17.51-1.56.22-2.71.38-2.59.35-4.64 1.15-2.04.8-3.23 2.22-1.18 1.43-1.18 3.66 0 3.2 2.33 4.83 2.34 1.63 5.95 1.63Zm34.58 10.07V26.06h11.57v51.81q0 5.3-2.01 8.8-2.02 3.5-5.87 5.2-3.85 1.69-9.35 1.59-.51-.03-1.04-.03-.52 0-1.16-.03v-9.43q.48.03.86.05.38.02.8.02 3.32 0 4.76-1.62 1.44-1.61 1.44-4.71Zm5.75-58.62q-2.78 0-4.74-1.84-1.97-1.83-1.97-4.42 0-2.62 1.98-4.46 1.98-1.84 4.73-1.84 2.75 0 4.72 1.84 1.96 1.84 1.96 4.46 0 2.59-1.96 4.42-1.97 1.84-4.72 1.84Z"/>
    <style>
        path { fill: #413956; }
        rect { fill: #E0E0FF; }
        @media (prefers-color-scheme: dark) {
            path { fill: #E0E0FF; }
            rect { fill: #413956; }
        }
    </style>
</svg>
